<svg width="10" height="6" viewBox="0 0 10 6" fill="none" xmlns="http://www.w3.org/2000/svg">
<path fill-rule="evenodd" clip-rule="evenodd" d="M5.48622 5.30911C5.35946 5.43134 5.18755 5.5 5.00831 5.5C4.82906 5.5 4.65715 5.43134 4.53039 5.30911L0.706369 1.62092C0.641806 1.56078 0.590308 1.48884 0.554881 1.4093C0.519453 1.32975 0.500805 1.2442 0.500026 1.15763C0.499246 1.07107 0.516349 0.985216 0.550338 0.905091C0.584327 0.824966 0.634521 0.752172 0.69799 0.690957C0.76146 0.629742 0.836934 0.581331 0.92001 0.54855C1.00309 0.515768 1.0921 0.499272 1.18185 0.500025C1.27161 0.500777 1.36031 0.518762 1.44278 0.552931C1.52526 0.5871 1.59985 0.636769 1.6622 0.699038L5.00831 3.92629L8.35441 0.699038C8.4819 0.580277 8.65265 0.514562 8.82989 0.516048C9.00713 0.517533 9.17668 0.5861 9.30201 0.70698C9.42734 0.827861 9.49843 0.991383 9.49997 1.16233C9.50151 1.33327 9.43338 1.49796 9.31024 1.62092L5.48622 5.30911Z" fill="#262725"/>
</svg>
