<svg width="14" height="25" viewBox="0 0 14 25" fill="none" xmlns="http://www.w3.org/2000/svg">
<path d="M1.00008 25C0.734839 25 0.480466 24.8119 0.292916 24.477C0.105365 24.1421 0 23.6878 0 23.2142V1.78483C9.09763e-05 1.48055 0.0437224 1.18135 0.126754 0.915637C0.209785 0.649922 0.329463 0.426498 0.474431 0.266566C0.619399 0.106634 0.784848 0.0154995 0.955079 0.00180879C1.12531 -0.011882 1.29468 0.0523254 1.44711 0.188339L13.448 10.903C13.6139 11.0515 13.7534 11.2795 13.8509 11.5614C13.9484 11.8434 14 12.1682 14 12.4995C14 12.8309 13.9484 13.1557 13.8509 13.4376C13.7534 13.7196 13.6139 13.9475 13.448 14.096L1.44711 24.8107C1.30834 24.9349 1.15529 24.9997 1.00008 25Z" fill="black"/>
</svg>
