<svg width="20" height="20" viewBox="0 0 20 20" fill="none" xmlns="http://www.w3.org/2000/svg">
<path d="M1.59023 3.05156L4.08632 0.557813C4.2624 0.380962 4.47169 0.240642 4.70215 0.144915C4.93262 0.0491882 5.17973 -5.98116e-05 5.42929 5.45145e-08C5.93789 5.45145e-08 6.41601 0.199219 6.7746 0.557813L9.46054 3.24375C9.63739 3.41983 9.77771 3.62911 9.87344 3.85958C9.96917 4.09005 10.0184 4.33716 10.0184 4.58672C10.0184 5.09531 9.81914 5.57344 9.46054 5.93203L7.49648 7.89609C7.95622 8.90944 8.59541 9.8313 9.3832 10.6172C10.169 11.4069 11.0908 12.0484 12.1043 12.5109L14.0684 10.5469C14.2444 10.37 14.4537 10.2297 14.6842 10.134C14.9147 10.0383 15.1618 9.989 15.4113 9.98906C15.9199 9.98906 16.398 10.1883 16.7566 10.5469L19.4449 13.2305C19.622 13.4069 19.7624 13.6165 19.8582 13.8474C19.9539 14.0783 20.003 14.3258 20.0027 14.5758C20.0027 15.0844 19.8035 15.5625 19.4449 15.9211L16.9535 18.4125C16.3816 18.9867 15.5918 19.3125 14.7809 19.3125C14.6098 19.3125 14.4457 19.2984 14.284 19.2703C11.1246 18.75 7.99101 17.0695 5.4621 14.543C2.93554 12.0188 1.25742 8.8875 0.730074 5.71875C0.5707 4.75078 0.891792 3.75469 1.59023 3.05156Z" fill="#FBDA03"/>
</svg>
