<svg width="304" height="291" viewBox="0 0 304 291" fill="none" xmlns="http://www.w3.org/2000/svg">
<path d="M235.376 101.844C211.28 83.2997 190.288 69.6837 154.288 51.5237C145.04 46.8517 138.96 47.6197 131.6 56.2437C121.12 68.5637 110 87.4757 102.48 99.7477C97.3605 108.116 99.1525 116.18 105.68 121.78C107.744 123.556 166.48 161.412 168.912 162.708C168.912 162.708 165.328 141.412 181.616 135.604C197.904 129.796 220.8 153.588 220.8 153.588C233.296 133.076 250.56 113.54 235.376 101.844ZM156.8 73.9717C156.928 77.1717 152.592 74.9157 152.752 78.6437C152.709 79.1247 152.487 79.572 152.13 79.8977C151.773 80.2233 151.307 80.4039 150.824 80.4039C150.341 80.4039 149.876 80.2233 149.519 79.8977C149.162 79.572 148.94 79.1247 148.896 78.6437C148.048 74.7877 154.928 69.2837 156.8 73.9717ZM152.736 66.5317C152.791 67.0382 152.643 67.5456 152.325 67.9439C152.008 68.3423 151.546 68.5995 151.04 68.6597C149.964 68.74 148.917 69.0489 147.969 69.5656C147.021 70.0823 146.194 70.7951 145.543 71.6565C144.892 72.5179 144.432 73.5081 144.193 74.5612C143.955 75.6142 143.944 76.706 144.16 77.7637C144.22 78.0452 144.216 78.3363 144.149 78.616C144.081 78.8957 143.953 79.1569 143.772 79.3807C143.591 79.6044 143.363 79.785 143.103 79.9094C142.844 80.0338 142.56 80.0988 142.272 80.0997C138.224 78.9157 140.528 72.2117 142.272 69.6197C144.016 67.0277 151.024 62.1637 152.704 66.5317H152.736ZM134.608 63.7637C136 60.8517 147.904 53.4917 149.856 58.6437C149.896 59.1524 149.734 59.6562 149.404 60.0457C149.075 60.4352 148.605 60.6789 148.096 60.7237C146.08 60.8112 144.106 61.3341 142.311 62.2566C140.516 63.179 138.942 64.4792 137.696 66.0677C136.472 67.8042 135.623 69.7762 135.201 71.8585C134.78 73.9408 134.796 76.0879 135.248 78.1637C135.305 78.444 135.299 78.7334 135.231 79.0111C135.162 79.2888 135.033 79.5479 134.853 79.7697C134.672 79.9916 134.445 80.1706 134.187 80.2941C133.929 80.4176 133.646 80.4823 133.36 80.4837C128.352 78.6757 132.096 66.6117 134.608 63.7637ZM123.504 91.1717C122.368 88.3877 119.456 91.1717 118.704 88.3237C118.65 88.0768 118.646 87.8216 118.69 87.5729C118.735 87.3241 118.829 87.0866 118.965 86.874C119.102 86.6614 119.279 86.478 119.487 86.3341C119.695 86.1902 119.929 86.0888 120.176 86.0357C121.435 85.7104 122.767 85.823 123.954 86.3552C125.14 86.8873 126.11 87.8072 126.704 88.9637C127.616 90.2597 127.68 90.2437 128.432 90.0197C131.2 89.1717 133.232 89.1717 134.72 90.0197C137.328 91.4757 137.248 94.3877 138.24 96.6757C138.704 97.3157 139.84 96.8677 141.792 95.7957C143.744 94.7237 146.16 98.1637 143.392 99.3157C140.624 100.468 140.032 100.708 138.4 100.708C134.848 101.348 134.112 95.2357 132.912 93.3957C129.152 92.9477 126.4 95.8437 123.504 91.1717ZM159.44 136.788C159.284 136.987 159.09 137.153 158.87 137.277C158.649 137.401 158.406 137.48 158.155 137.51C157.904 137.54 157.649 137.519 157.406 137.45C157.162 137.381 156.935 137.265 156.736 137.108C146.384 129.108 141.664 127.284 130.416 118.98C130.005 118.678 129.73 118.226 129.652 117.722C129.574 117.218 129.699 116.703 130 116.292C130.302 115.88 130.754 115.605 131.258 115.527C131.762 115.449 132.277 115.574 132.688 115.876C138.528 120.132 142.656 122.788 146.288 125.124C147.856 126.852 161.824 133.284 159.44 136.788ZM171.072 111.028C164.672 114.756 160.688 114.452 159.104 107.7C158.832 107.364 154.304 109.94 153.2 108.82C150.96 107.812 151.376 104.772 150.336 103.188C149.726 103.126 149.111 103.255 148.576 103.556C148.105 103.751 147.576 103.751 147.105 103.556C146.634 103.361 146.26 102.987 146.064 102.516C145.869 102.045 145.869 101.515 146.064 101.044C146.259 100.573 146.633 100.199 147.104 100.004C151.616 97.7157 154.608 101.156 154.96 105.028C160.912 102.036 162.48 105.028 164 109.62C164.096 109.62 165.184 109.972 169.136 107.684C169.577 107.465 170.085 107.422 170.555 107.564C171.026 107.706 171.426 108.022 171.672 108.448C171.919 108.874 171.994 109.377 171.882 109.856C171.771 110.336 171.481 110.754 171.072 111.028ZM194.496 131.62C191.296 132.02 192.24 125.972 191.44 124.9C187.808 127.316 183.872 125.908 183.968 121.3C183.968 120.564 183.744 119.172 183.408 118.964C178.8 121.892 174.96 123.06 175.008 115.556C175.017 115.046 175.224 114.56 175.586 114.202C175.947 113.843 176.435 113.64 176.944 113.636C178.848 113.636 178.944 115.828 178.928 117.076C184.32 112.884 187.856 116.036 187.968 122.212C189.376 121.684 192.192 120.132 193.456 121.332C194.24 120.756 198.4 130.964 194.496 131.62ZM218.176 119.764C216.064 119.764 216.736 117.012 216.096 116.084C204.672 121.3 208.24 110.932 204.784 110.484C195.184 113.876 195.184 113.396 193.584 103.652C188.288 105.62 183.184 104.26 183.136 98.6437C183.11 98.3935 183.133 98.1404 183.205 97.8992C183.277 97.658 183.396 97.4335 183.555 97.2386C183.714 97.0437 183.911 96.8823 184.133 96.7637C184.355 96.6451 184.598 96.5717 184.848 96.5477C187.216 96.0357 186.992 100.228 187.664 100.532C188.336 100.836 190.672 100.356 192.576 99.9237C197.904 98.7397 197.68 104.916 198.32 108.548C206.048 105.476 208.656 105.492 210.784 113.572C213.264 113.748 216.464 110.788 218.784 113.284C220.544 114.964 221.44 119.764 218.176 119.764Z" fill="#262725"/>
<path d="M91.1996 168.099C84.7996 170.851 85.2956 186.243 93.5036 186.675C100.048 187.043 109.664 186.099 111.856 184.275C115.968 180.803 114.72 167.075 108.4 166.323C102.606 165.893 96.7827 166.494 91.1996 168.099ZM109.744 172.899C113.424 184.867 103.04 183.411 93.4396 183.155C91.9356 182.851 90.5596 179.699 90.4796 176.435C90.2076 168.131 103.28 170.659 108.08 170.147C108.48 170.195 109.232 171.075 109.76 172.899H109.744Z" fill="#464644"/>
<path d="M113.6 212.996C108.144 213.156 101.488 212.868 97.0558 215.364C91.1358 218.564 92.5118 233.124 99.7118 233.62C105.488 234.036 115.232 233.204 118.32 230.884C123.616 227.044 120.864 212.804 113.6 212.996ZM116.544 220.068C117.712 223.396 117.216 226.9 116.016 227.812C115.024 228.212 98.5758 233.812 97.4718 226.212C95.2638 216.292 104 217.236 111.344 216.948C113.92 216.548 115.712 217.06 116.576 220.068H116.544Z" fill="#464644"/>
<path d="M73.7117 121.268C75.8467 118.94 78.7358 117.442 81.8685 117.038C85.0012 116.634 88.176 117.35 90.8317 119.06C94.0317 120.484 94.7837 115.764 91.6637 115.14C99.7277 88.4679 56.9917 96.2439 71.9997 117.524C69.7437 119.764 71.8077 122.868 73.7117 121.268ZM80.2237 101.668C79.7944 105.531 79.9075 109.436 80.5597 113.268C78.6613 113.585 76.8416 114.264 75.1997 115.268C70.4957 109.94 73.4397 101.796 80.2237 101.668Z" fill="#464644"/>
<path d="M55.4729 127.38C55.264 127.238 55.0291 127.138 54.7816 127.087C54.5341 127.036 54.2789 127.034 54.0306 127.081C53.7824 127.129 53.5459 127.225 53.3349 127.364C53.1239 127.503 52.9424 127.683 52.8009 127.892C51.2009 131.78 57.2649 133.348 60.3849 133.508C68.0329 133.876 73.2809 125.796 69.9049 124.084C66.0489 122.132 65.7769 133.076 55.4729 127.38Z" fill="#464644"/>
<path d="M100.8 91.7959C97.6001 87.7799 74.7361 90.0519 64.6401 90.5479C57.3281 90.9639 47.3761 92.5639 30.0481 94.2599C6.5761 96.4839 14.2881 111.156 18.2881 136.628C20.5121 150.772 34.2881 144.164 55.3601 141.62C66.2241 140.292 91.3761 137.284 100.048 136.372C107.504 135.588 109.648 126.996 106.112 126.532C103.44 126.164 105.6 131.156 97.7921 132.564C76.4161 136.164 52.9921 137.972 30.4801 140.868C19.4721 142.276 21.4401 131.268 17.9521 112.068C16.0641 101.684 20.1441 99.4599 30.5441 98.1319C48.7041 95.7959 57.7441 94.7879 64.9281 94.4359C72.1121 94.0839 93.2001 92.0359 98.0641 94.5799C100.288 95.7639 102.304 93.7319 100.8 91.7959Z" fill="#464644"/>
<path d="M108.8 189.443C94.4004 189.635 84.5764 195.411 91.7924 208.643C94.5604 213.699 116.704 208.995 117.392 203.491C118.4 195.491 116.48 189.347 108.8 189.443ZM113.6 203.139C113.168 205.059 96.5124 209.667 94.5604 205.907C91.8724 200.787 91.5684 193.763 104.592 192.931C111.392 192.499 115.6 193.811 113.6 203.139Z" fill="#464644"/>
<path d="M28.5918 127.221C30.9758 129.333 32.1118 123.829 38.9758 122.949C42.2708 122.49 45.6217 123.216 48.4318 124.997C51.6318 126.421 52.3998 121.701 49.2798 121.061C57.2798 94.3888 14.5918 102.181 29.6478 123.461C28.4798 124.325 27.1998 125.989 28.5918 127.221ZM30.4798 112.405C31.3438 109.205 34.4958 107.605 37.8238 107.605C37.4028 111.469 37.5158 115.372 38.1598 119.205C36.2464 119.513 34.4103 120.186 32.7518 121.189C31.7183 120.001 30.9751 118.589 30.5808 117.064C30.1865 115.54 30.1519 113.945 30.4798 112.405Z" fill="#464644"/>
<path d="M61.8722 191.764C68.0322 192.02 77.3762 190.164 80.3042 188.564C85.5362 184.676 82.0802 170.964 75.9202 170.964C71.5682 170.74 58.9442 171.7 56.5122 175.3C54.0802 178.9 55.1042 191.492 61.8722 191.764ZM59.6322 177.492C60.6402 176.148 70.1762 174.404 75.7282 174.756C79.3762 175.78 79.2322 184.628 78.4482 185.22C76.2882 186.404 67.7282 188.164 62.0322 187.924C58.6722 187.108 59.0242 178.084 59.6322 177.46V177.492Z" fill="#464644"/>
<path d="M64.6243 41.0601C56.7683 34.8201 55.8402 48.6121 46.7042 42.7721C46.4815 42.6524 46.2374 42.5776 45.9858 42.5522C45.7342 42.5268 45.4801 42.5512 45.2379 42.624C44.9957 42.6968 44.7702 42.8166 44.5744 42.9765C44.3785 43.1365 44.216 43.3334 44.0963 43.5561C43.9765 43.7789 43.9018 44.023 43.8763 44.2746C43.8509 44.5262 43.8753 44.7803 43.9481 45.0225C44.0209 45.2647 44.1407 45.4901 44.3006 45.686C44.4606 45.8819 44.6575 46.0444 44.8803 46.1641C53.4402 50.6921 58.0163 43.8281 60.3203 43.2681C62.6243 42.7081 64.2562 46.3401 67.4722 46.3241C70.6882 46.3081 74.8962 39.8441 72.4963 38.4361C72.0603 38.1749 71.5391 38.0957 71.0452 38.2154C70.5512 38.3351 70.1242 38.6443 69.8562 39.0761C66.8802 43.1561 67.0882 42.9641 64.6243 41.0601Z" fill="#464644"/>
<path d="M37.5044 28.9319C42.4484 37.0439 48.0964 34.7239 50.8324 28.5159C51.2004 27.6999 52.4324 27.6679 53.1684 28.1639C58.1604 31.5559 61.5364 31.1079 66.5764 25.9239C66.7539 25.7442 66.8943 25.5314 66.9896 25.2974C67.0849 25.0635 67.1332 24.8131 67.1317 24.5605C67.1302 24.308 67.079 24.0582 66.981 23.8254C66.8829 23.5926 66.74 23.3814 66.5604 23.2039C66.3807 23.0263 66.1679 22.8859 65.9339 22.7906C65.7 22.6953 65.4496 22.647 65.1971 22.6485C64.9445 22.65 64.6947 22.7012 64.4619 22.7993C64.2291 22.8973 64.0179 23.0402 63.8404 23.2199C56.7844 32.4199 53.8244 16.8199 47.3124 27.0439C45.9044 29.2199 44.5124 32.4839 40.4164 26.3719C36.3204 20.2599 32.3364 31.9559 28.6564 31.9559C28.4164 31.9559 27.1364 31.5079 25.4564 27.2519C25.3767 27.0074 25.2458 26.7828 25.0724 26.593C24.899 26.4032 24.6871 26.2525 24.4509 26.1511C24.2147 26.0496 23.9596 25.9997 23.7025 26.0047C23.4455 26.0096 23.1925 26.0694 22.9604 26.1799C20.5764 27.7799 23.8404 35.3959 28.0484 35.7799C32.2564 36.1639 34.8644 31.5719 37.5044 28.9319Z" fill="#464644"/>
<path d="M58.033 59.9395C55.745 59.9395 53.793 59.2995 48.849 56.8355C48.2017 56.4985 47.4695 56.3598 46.7438 56.4366C46.0182 56.5134 45.3313 56.8025 44.769 57.2675C40.481 61.0595 37.825 62.4675 35.425 59.4115C32.113 55.2035 32.001 64.2115 37.649 64.8675C42.097 65.3475 45.649 60.8195 47.073 60.6115C48.497 60.4035 53.121 64.5795 58.577 63.8115C59.9178 63.6871 61.2193 63.291 62.4021 62.6473C63.5849 62.0036 64.6243 61.1259 65.457 60.0675C66.721 58.4675 72.529 63.2675 73.921 61.4755C76.625 58.0675 67.729 56.3875 66.257 56.2915C63.393 56.1475 62.705 59.8595 58.033 59.9395Z" fill="#464644"/>
<path d="M235.2 130.644C234.624 131.556 234.016 132.724 232.912 134.436C260.688 148.724 266.384 157.876 279.952 190.612C261.712 229.988 211.392 228.58 200.16 230.052C173.76 187.892 167.072 157.636 175.28 144.708C187.12 126.052 214.16 148.724 224.656 161.86C226.848 164.58 231.136 162.004 229.456 160.148C204.496 131.476 184.416 127.572 173.152 139.348C161.888 151.124 166.96 178.228 184.928 211.828C161.744 210.356 146.16 195.684 142.656 174.644C151.136 178.436 159.568 180.66 159.2 177.844C158.832 175.028 150.08 174.98 141.92 169.844C139.376 154.868 143.6 150.644 139.92 149.796C134.768 148.612 130.224 215.54 187.584 216.644C190.256 221.348 193.008 225.956 195.76 230.404C179.76 237.844 188.896 257.044 203.92 289.092C204.023 289.331 204.174 289.546 204.363 289.724C204.552 289.903 204.776 290.041 205.02 290.131C205.264 290.221 205.524 290.26 205.783 290.246C206.043 290.232 206.297 290.166 206.531 290.051C206.764 289.936 206.971 289.774 207.14 289.577C207.309 289.379 207.437 289.149 207.514 288.901C207.592 288.653 207.618 288.391 207.592 288.133C207.565 287.874 207.486 287.623 207.36 287.396C189.568 251.252 190.096 241.14 192.544 237.668C195.888 232.868 204.608 235.012 226.384 231.476C248.16 227.94 268.64 218.964 282.176 194.964C282.32 194.132 303.104 238.596 304 225.06C275.76 186.532 282.688 151.636 235.2 130.644Z" fill="#464644"/>
<path d="M68.9125 237.876C74.7205 238.164 84.2085 237.235 87.3125 235.027C92.4645 231.491 91.1845 217.012 83.9045 216.868C74.9445 216.708 59.6485 215.012 62.1765 229.012C62.7845 232.964 64.9125 237.668 68.9125 237.876ZM67.2005 222.372C75.4085 220.372 92.1445 216.916 85.0565 231.972C83.3605 233.188 75.3285 234.452 69.0565 234.1C66.4005 234.404 64.4805 223.044 67.2005 222.372Z" fill="#464644"/>
<path d="M122.831 141.092C120.015 140.724 121.951 148.244 122.287 154.148C123.375 173.348 144.975 250.324 115.887 248.708C88.3513 247.108 34.7513 268.932 25.1193 249.828C15.4873 230.724 16.6233 187.124 12.7993 157.94C10.0633 137.556 2.03128 96.9 4.95928 84.132C6.36728 77.924 13.8873 71.94 20.5273 71.54C20.8473 74.036 21.0713 76.58 21.2153 79.172C15.4873 79.572 16.3193 82.516 17.4233 83.204C21.4073 85.684 96.8473 73.412 97.4233 72.388C97.8849 72.2568 98.2778 71.9519 98.5195 71.5372C98.7611 71.1225 98.8327 70.6304 98.7193 70.164C98.0633 68.436 93.7273 69.348 89.5673 70.164C89.1993 67.492 88.7833 64.788 88.2873 62.068C104.783 60.564 107.439 65.364 112.639 72.484C114.015 74.356 117.103 72.484 116.207 70.628C110.399 58.676 100.799 56.996 87.5833 58.164C84.0633 39.732 80.3673 21.748 77.3433 2.56404C76.8153 -0.82796 71.6953 6.77204 68.8953 6.59604C67.2953 6.48404 65.6953 4.56404 63.5513 1.79604C60.1113 -2.53996 56.9433 7.55604 51.4073 7.87604C48.8313 8.03604 43.5193 -0.76396 41.1833 3.30004C35.3433 13.364 34.3193 13.46 28.6553 7.79604C24.8793 3.97204 23.4713 14.644 18.9113 14.084C15.7113 13.684 15.1673 10.884 13.4873 11.94C5.71128 16.74 18.2873 48.74 19.8873 67.716C9.34328 70.58 1.59928 74.484 0.383281 84.884C-1.84072 102.916 6.39928 140.212 8.12728 159.22C10.9113 189.044 14.0473 241.124 22.1273 253.412C36.1593 274.74 87.8233 251.556 116.207 252.548C150.623 253.748 129.007 179.38 126.095 153.636C125.119 144.916 126.399 141.54 122.831 141.092ZM14.7833 16.724C19.1993 19.508 24.2713 18.724 27.3433 12.564C34.1753 18.74 39.3593 15.764 43.3433 7.39604C50.6393 15.732 55.5033 12.484 61.2473 5.41204C65.6473 11.812 68.6553 13.412 74.0473 8.11604C76.4313 29.012 83.0393 50.356 85.8233 70.788C68.5273 73.988 46.2073 76.564 25.0233 78.788C23.4873 54.164 13.8073 32.26 14.7833 16.724Z" fill="#464644"/>
<path d="M102.08 142.884C86.2557 143.124 77.2957 147.572 85.6637 162.388C93.5197 166.644 111.76 162.292 110.704 156.884C111.232 148.436 109.792 142.772 102.08 142.884ZM106.88 156.58C106.704 158.788 100.48 159.636 91.1357 160.212C86.5437 160.532 87.0557 156.724 86.7037 152.212C84.9757 147.412 95.8397 147.284 102.464 146.708C107.2 146.964 106.912 149.14 106.864 156.564L106.88 156.58Z" fill="#464644"/>
<path d="M25.6008 172.036C34.2408 173.236 50.0648 174.02 48.2088 160.516C47.6648 156.612 45.7928 151.876 41.8088 151.476C34.1128 151.476 20.6568 150.548 20.7048 161.94C20.5448 165.828 22.0488 170.628 25.6008 172.036ZM26.6248 157.204C32.8648 156.068 43.4408 150.804 44.3848 160.964C44.7368 163.892 44.0648 166.516 42.8808 166.932C37.2968 168.884 29.0568 169.268 27.0408 168.532C24.2888 167.764 23.3128 158.308 26.5448 157.204H26.6248Z" fill="#464644"/>
<path d="M60.352 168.452C65.3553 168.288 70.3129 167.443 75.088 165.94C82.112 163.684 80 147.668 73.184 147.38C67.248 147.668 50.784 145.78 50.96 156.804C50.992 162.868 53.968 169.092 60.352 168.452ZM54.8 156.868C54.8 156.132 54.976 153.668 56.4 153.204C60.832 151.604 74.56 146.612 75.6 156.404C75.92 159.284 75.2 161.94 74 162.34C63.6 164.564 54.8 168.452 54.8 156.868Z" fill="#464644"/>
<path d="M51.7925 188.308C51.7925 183.508 51.2165 178.884 48.8645 176.708C46.2885 173.844 38.2725 175.412 34.4645 175.62C20.2725 176.404 22.1445 186.932 27.5205 194.628C34.4485 197.908 51.7605 193.684 51.7925 188.308ZM37.2645 179.22C44.4485 177.62 49.0885 178.516 47.9525 188.068C47.8405 189.956 45.5205 191.476 33.4565 192.468C28.8005 192.868 28.1125 189.844 27.6165 184.612C27.2005 180.708 28.6725 180.26 37.2645 179.22Z" fill="#464644"/>
<path d="M61.9204 214.164C67.0884 215.236 76.9764 214.052 81.1204 212.932C87.3764 211.252 86.9764 194.948 79.8884 194.644C72.8004 194.34 55.7924 193.044 57.9204 206.148C58.1604 209.364 59.3764 213.348 61.9204 214.164ZM61.7124 203.476C62.4644 196.868 74.3043 198.676 79.5044 198.484C82.4964 198.884 81.8244 209.268 79.9684 209.252C75.8564 210.484 65.6484 211.092 63.1364 210.5C61.8808 208.358 61.3794 205.857 61.7124 203.396V203.476Z" fill="#464644"/>
<path d="M39.1359 242.164C56.9279 241.444 61.1199 240.308 57.3919 225.316C55.5679 217.988 33.8079 221.268 31.5519 226.452C29.2959 231.636 30.1279 242.532 39.1359 242.164ZM34.8959 228.356C37.3919 224.676 47.5199 224.34 50.2559 224.308C54.8159 224.308 55.9679 233.428 54.5439 235.124C50.6399 239.764 35.5839 239.188 35.1359 237.076C34.5759 234.388 33.4079 230.548 34.8959 228.356Z" fill="#464644"/>
<path d="M31.7919 219.091C35.2479 221.043 57.0079 218.787 54.6719 207.635C53.8239 203.571 53.9679 198.323 48.4639 198.035C42.6399 197.747 27.3439 197.139 27.1679 207.363C26.9759 211.827 28.9759 217.491 31.7919 219.091ZM31.0239 207.171C32.1279 200.963 44.4319 202.035 47.9839 201.859C50.1119 201.603 52.4319 212.595 49.4879 213.491C38.5279 215.955 30.6879 220.083 31.0239 207.171Z" fill="#464644"/>
</svg>
