<svg width="312" height="349" viewBox="0 0 312 349" fill="none" xmlns="http://www.w3.org/2000/svg">
<path d="M98.0944 26.9841C109.999 20.3597 126.228 24.2316 136.293 29.7549C146.358 35.2783 159.808 44.912 164.758 51.9034C167.007 55.1083 167.984 59.0314 167.499 62.9134C169.523 63.4455 188.843 68.4184 190.904 64.2346C192.505 61.06 185.274 54.6742 184.869 54.2889C184.464 53.9035 160.286 24.3417 144.168 16.9466C137.857 14.0657 110.404 15.1116 81.608 10.2122C79.8784 14.1024 90.808 23.0572 98.0944 26.9841Z" fill="#FBDA03"/>
<path d="M126.414 30.323C114.233 26.9099 107.83 28.6164 102.696 31.1304C97.5625 33.6443 94.0481 46.8747 94.0481 46.8747C94.0481 46.8747 129.118 45.0397 150.021 71.9591C153.37 70.8948 160.49 61.6648 158.393 55.9946C156.295 50.3245 142.127 34.7453 126.414 30.323Z" fill="#FBDA03"/>
<path d="M217.07 160.884C217.07 160.884 213.169 159.673 204.061 152.994C198.232 148.574 193.156 143.245 189.028 137.213C189.028 137.213 180.804 148.608 179.148 152.792C183.711 159.306 187.464 159.655 188.9 162.939C190.74 167.178 189.286 171.821 187.667 175.087C180.988 188.593 165.09 199.162 165.09 199.162C165.09 199.162 163.544 222.302 161.41 226.816C159.276 231.33 158.024 234.871 151.713 231.678C145.402 228.486 117.673 215.035 117.673 215.035L104.333 213.035C98.9909 214.442 93.4822 215.121 87.9571 215.053C78.0579 222.393 67.3123 235.605 68.1219 243.533C68.9315 251.46 82.5659 274.984 85.7491 278.709C88.9323 282.435 92.0603 285.738 96.0715 283.994C100.083 282.251 104.572 277.315 110.792 268.984C112.944 266.14 123.175 261.149 128.143 262.323C130.836 259.884 133.379 257.286 135.76 254.543C138.06 251.717 143.12 243.11 149.303 242.505C155.485 241.899 161.171 248.359 164.225 252.469C167.28 256.579 167.556 264.58 165.164 267.057C162.772 269.534 151.088 274.672 146.764 277.462C145 278.545 143.304 279.734 141.685 281.022L143.36 284.692H159.92C177.988 284.692 201.228 269.461 190.151 224.137C214.88 191.602 217.07 160.884 217.07 160.884Z" fill="#FBDA03"/>
<path d="M147.222 186.721C144.628 185.969 143.542 190.648 140.911 189.914C133.404 187.271 128.675 192.152 134.342 197.951C145.419 209.236 155.999 189.29 147.222 186.721ZM146.633 191.4C146.633 199.199 138.353 199.97 135.465 193.033C139.053 193.07 143.781 194.942 146.633 191.4Z" fill="#262725"/>
<path d="M42.4165 310.142H44.4221C42.5821 311.06 42.7293 313.941 44.9925 313.996C47.0349 313.537 48.3229 311.353 50.1629 310.326C53.2357 310.417 56.6765 310.546 59.8781 310.674C58.5165 312.271 57.1549 313.941 55.7749 315.519C53.0149 316.216 50.2549 314.142 49.1325 316.877C48.7461 318.712 50.6045 319.354 52.1501 319.317C50.1445 320.308 48.9853 323.428 51.9661 323.776C54.2661 323.226 55.6461 320.914 57.4861 319.134C60.0546 318.789 62.6551 318.752 65.2325 319.024C65.4744 319.077 65.7247 319.081 65.9683 319.035C66.2119 318.99 66.4438 318.896 66.65 318.759C66.8562 318.621 67.0325 318.444 67.1683 318.238C67.3042 318.031 67.3967 317.799 67.4405 317.556C67.6245 314.271 63.3189 315.243 60.9085 315.152C62.1413 313.665 63.4293 312.106 64.5885 310.839C67.1645 310.528 70.9917 312.197 71.4701 309.004C71.4701 307.316 69.7773 307.023 68.3605 307.169C69.0229 303.206 64.5701 304.839 63.0429 307.041L54.5789 306.619C57.1549 305.261 63.4845 297.022 56.4189 299.518C54.176 302.089 51.6587 304.408 48.9117 306.435C45.6549 306.876 41.2389 304.784 40.5213 308.27C40.5162 308.519 40.5618 308.766 40.6555 308.997C40.7492 309.228 40.8889 309.437 41.0662 309.612C41.2434 309.787 41.4545 309.924 41.6867 310.015C41.9188 310.107 42.1671 310.15 42.4165 310.142Z" fill="#262725"/>
<path d="M297.183 327.704C275.103 330.162 234.182 328.089 205.754 328.181C204.615 328.212 203.494 328.469 202.455 328.935C201.416 329.401 200.479 330.068 199.7 330.896C189.488 338.824 166.727 333.19 155.172 334.823C148.051 333.465 129.412 338.071 118.041 332.419C114.898 329.958 110.996 328.661 107.001 328.749C83.357 328.749 38.2402 329.318 16.7122 328.217C16.4585 328.197 16.2033 328.229 15.9628 328.313C15.7222 328.396 15.5016 328.528 15.3149 328.7C15.1281 328.872 14.9792 329.082 14.8777 329.314C14.7762 329.547 14.7242 329.798 14.725 330.052C14.7073 330.304 14.7418 330.556 14.8263 330.794C14.9108 331.032 15.0435 331.249 15.2162 331.434C15.3888 331.618 15.5977 331.765 15.8298 331.865C16.0618 331.965 16.3121 332.016 16.565 332.016C38.277 333.117 83.357 332.64 107.075 332.566C115.575 332.475 116.275 338.64 124.518 338.714C152.394 338.714 161.042 338.493 186.912 338.714C199.387 339.081 199.259 334.071 205.735 332.016C234.347 332.016 275.251 334.016 297.588 331.502C299.943 331.19 299.667 327.355 297.183 327.704Z" fill="#262725"/>
<path d="M85.9324 29.534C87.6804 30.9836 89.2628 32.2681 90.3668 33.204C69.0596 61.1327 103.247 79.8864 126.357 88.4558C149.468 97.0253 161.078 89.4651 166.58 69.8489C186.82 73.6657 198.154 74.0327 203.527 71.9592C207.391 70.4728 208.145 67.7387 206.784 64.1237C202.772 53.4807 180.416 35.2408 165.604 19.3314C213.573 -12.4508 208.863 47.1867 236.224 45.9205C243.142 50.7466 240.29 40.1403 255.102 48.0675C260.622 51.0585 259.555 39.076 255.102 38.8925C257.439 37.4061 255.893 27.4054 250.612 32.2131C248.386 34.2866 246.104 36.6538 243.252 39.5531C241.412 40.8009 237.732 40.4339 236.481 42.1955C213.702 45.2232 214.401 -17.9008 162.789 16.7991C144.96 -1.34905 139.55 5.51385 106.908 2.009C92.538 0.797895 78.1492 -0.798555 70.6972 1.07315C66.2628 2.19249 64.2756 4.5413 66.226 8.92695C68.1764 13.3126 74.2668 19.9186 85.9324 29.534ZM153.902 84.584C152.529 85.9339 150.92 87.0222 149.155 87.7952C134.729 93.5755 86.7788 69.537 87.294 52.2329C104.185 36.4336 156.515 67.4818 153.902 84.4739V84.584ZM164.942 63.8118C162.789 69.592 160.416 76.0879 157.14 80.8222C150.572 58.0499 110.883 37.0024 87.9196 47.0949C98.3524 6.3029 149.652 32.9654 164.114 56.2699C164.811 57.3643 165.244 58.6053 165.378 59.895C165.512 61.1848 165.344 62.4879 164.887 63.7017L164.942 63.8118ZM69.354 5.40375C77.1372 0.577695 94.8012 6.7433 106.706 5.7157C124.848 6.68825 143.598 7.71584 148.86 9.77104C152.044 11.8996 193.683 48.306 204.263 67.39C203.288 69.0966 197.234 71.1885 167.941 66.2707C174.381 39.4246 110.901 6.94514 92.6668 30.2313C86.0796 24.3776 68.7468 11.7895 69.354 5.40375Z" fill="#262725"/>
<path d="M82.6396 11.679C155.191 22.689 131.381 3.60501 185.275 56.5264C193.021 55.1502 167.519 34.2679 166.323 33.0568C154.786 21.3495 150.352 16.3216 143.507 14.8169C121.243 9.86236 111.914 13.5874 83.302 7.99066C82.8116 7.90306 82.3063 8.01334 81.8974 8.29725C81.4885 8.58115 81.2094 9.01543 81.1216 9.50453C81.0338 9.99364 81.1443 10.4975 81.429 10.9053C81.7137 11.3131 82.1492 11.5914 82.6396 11.679Z" fill="#262725"/>
<path d="M266.143 294.196C276.152 285.975 271.552 256.175 273.687 241.587C275.214 206.043 276.815 169.288 272.914 153.158C270.485 143.176 263.07 141.983 230.373 141.928C249.123 100.383 220.474 87.3916 200.933 95.2821C195.763 97.374 193.573 102.439 192.635 108.898C177.804 97.1538 175.964 117.174 184.557 130.569C181.429 134.606 178.393 138.313 175.78 141.965C157.785 109.503 98.7579 119.137 81.3515 142.735C36.9339 141.157 38.7923 146.24 39.4179 192.17C42.4355 214.979 32.1683 282.691 46.7779 294.178C32.3339 300.655 11.0451 320.84 3.83229 328.382C-1.44851 333.777 0.667488 345.815 7.12589 347.338C20.5211 348.072 58.0939 348.824 157.012 348.824C181.282 348.824 210.887 348.824 242.535 348.677C308.996 348.457 310.266 348.457 311.039 332.034C311.535 322.822 287.45 301.811 266.143 294.196ZM269.271 154.039C274.404 174.811 269.565 238.651 268.663 273.681C268.111 292.031 264.119 292.288 256.133 292.618C248.147 292.948 238.763 292.93 230.005 292.783C201.982 292.581 172.505 292.783 140.839 293.279C142.327 291.271 143.431 289.006 144.095 286.599C169.855 286.599 240.07 287.737 253.189 285.296C269.326 282.287 262.481 183.179 262.665 163.159C263.99 152.754 245.295 153.727 230.723 153.268C229.919 151.48 228.926 149.782 227.76 148.204C228.128 147.359 228.496 146.534 228.864 145.671C263.659 145.708 267.651 147.341 269.271 154.039ZM125.456 293.646C127.437 295.219 129.764 296.301 132.246 296.802C130.659 298.051 128.952 299.139 127.149 300.05C123.469 300.931 119.366 294.545 115.962 296.857C114.453 299.774 119.421 301.059 121.114 302.215C110.074 304.637 101.187 296.435 96.4395 285.186C106.394 279.681 114.195 263.9 124.555 262.818C125.02 263.514 125.32 264.308 125.432 265.138C125.543 265.968 125.464 266.812 125.199 267.607C123.543 276.287 131.97 285.186 140.599 283.315C141.096 286.471 138.355 290.655 135.944 293.37C132.998 293.485 130.108 292.548 127.793 290.728C125.916 289.168 123.543 292.159 125.456 293.646ZM108.013 304.142C100.653 310.362 92.7779 327.648 81.6827 313.317C72.7219 298.637 84.5163 297.793 94.6915 290.471C97.6945 296.23 102.326 300.984 108.013 304.142ZM132.669 277.755C129.099 276.231 128.455 269.24 128.989 263.992C135.263 259.808 142.163 246.945 148.493 244.523C154.234 241.642 169.819 257.368 163.691 265.13C156.755 270.341 148.475 271.681 140.618 279.388C139.262 279.8 137.824 279.866 136.435 279.581C135.046 279.295 133.752 278.668 132.669 277.755ZM192.598 225.475C217.217 204.134 225.239 182.004 231.771 157.048C244.872 157.379 261.083 157.305 258.911 163.397C261.156 198.556 259.298 226.319 258.562 260.047C258.286 272.268 255.802 280.746 252.251 281.663C248.699 282.581 224.338 282.893 198.891 282.948C202.166 264.598 201.89 247.514 192.598 225.475ZM223.878 159.948C223.271 159.948 222.59 159.801 221.872 159.672C223.16 157.525 224.54 154.956 225.939 152.13C228.22 155.764 230.005 160.443 223.841 159.948H223.878ZM183.269 111.118C184.704 107.925 187.667 108.733 190.003 111.595C198.799 119.669 194.033 96.6584 207.962 97.1722C208.859 100.645 208.979 104.273 208.311 107.797C208.236 108.074 208.228 108.365 208.286 108.646C208.344 108.927 208.468 109.191 208.647 109.416C208.826 109.641 209.055 109.821 209.316 109.941C209.578 110.061 209.864 110.119 210.151 110.109C214.236 108.439 212.194 101.154 211.789 97.0254C215.099 97.1962 218.378 97.7504 221.559 98.6769C223.841 100.512 220.014 110.256 223.399 111.779C227.595 111.155 225.663 102.952 225.883 100.769C239.536 111.302 228.478 141.689 218.027 158.608C203.951 155.36 181.447 129.395 183.269 111.118ZM184.52 136.661L186.36 134.423C195.928 152.149 210.63 163.306 226.362 163.581C219.499 184.225 212.194 203.767 191.089 221.879C190.077 220.044 181.539 198.978 180.417 209.309C197.989 240.027 199.24 260.45 195.137 282.948H144.298C144.227 282.466 144.11 281.993 143.948 281.535C155.393 269.46 177.583 273.791 165.2 250.707C149.928 228.687 139.164 248.541 127.462 260.579C121.942 254.762 113.643 247.734 112.227 241.348C111.877 238.761 121.187 236.761 119.955 233.733C119.861 233.504 119.721 233.297 119.545 233.124C119.369 232.951 119.16 232.814 118.929 232.723C118.699 232.633 118.453 232.589 118.205 232.595C117.958 232.602 117.714 232.658 117.489 232.76C100.156 239.293 112.595 250.67 121.169 259.698C108.289 262.726 99.3651 288.287 84.3691 283.7C64.1291 257.716 47.9555 238.063 80.1371 215.511C88.0845 217.636 96.4723 217.477 104.333 215.053C141.998 217.989 166.893 264.598 166.893 200.207C185.735 182.958 198.504 173.288 187.814 158.626C183.793 154.841 180.451 150.397 177.933 145.488C180.159 142.203 181.76 140.148 184.52 136.661ZM74.2123 157.434C71.7283 166.737 73.0899 175.93 71.7651 184.261C70.1827 189.931 58.8851 195.069 63.8899 203.107C66.4904 208.046 70.779 211.894 75.9787 213.952C46.0051 235.972 58.4251 257.386 79.1619 282.764C58.2043 280.085 53.1259 291.15 53.2915 261.111C53.6227 229.549 53.2915 202.024 53.8619 170.077C53.7515 157.103 62.3259 156.901 74.2123 157.434ZM108.657 171.802C111.693 173.178 115.171 165.618 121.776 167.618C122.018 167.671 122.269 167.675 122.512 167.63C122.756 167.584 122.988 167.49 123.194 167.353C123.4 167.216 123.576 167.038 123.712 166.832C123.848 166.625 123.941 166.393 123.984 166.15C123.763 162.076 117.489 163.874 114.508 164.7C121.224 160.223 128.658 155.635 131.804 148.589C135.864 151.381 140.414 153.385 145.218 154.498C143.875 155.654 139.127 160.645 143.507 161.434C146.377 160.241 148.18 155.25 150.959 155.488C156.479 155.947 161.336 155.488 164.17 153.653C166.709 152.351 166.194 153.653 168.825 159.911C184.152 197.749 145.107 217.622 110.331 212.52C130.24 202.795 82.6027 192.849 108.271 169.233C108.127 169.426 108.022 169.647 107.964 169.881C107.905 170.115 107.894 170.358 107.93 170.597C107.965 170.836 108.048 171.065 108.173 171.272C108.298 171.478 108.462 171.658 108.657 171.802ZM163.25 203.309C161.41 245.881 154.05 228.136 126.634 217.108C140.287 216.025 153.884 210.96 163.25 203.309ZM120.157 125.89C143.194 120.11 165.587 129.56 175.504 148.699C186.084 164.682 196.278 167.049 175.909 186.995C186.949 172.187 184.428 164.682 172.523 152.241C168.365 139.047 145.88 119.449 129.026 132.716C103.597 128.624 83.7619 146.736 82.8787 168.847C82.2715 181.178 86.4115 189.344 80.0635 193.106C65.5643 205.015 96.4211 212.135 102.916 211.456C91.8763 216.135 60.0259 210.997 68.6739 194.189C71.9202 191.996 74.3112 188.757 75.4451 185.014C78.2787 160.865 70.3667 139.065 120.157 125.89ZM43.7603 278.287C41.9203 255.147 43.3923 217.732 43.1347 192.042C42.7299 150.772 37.1363 145.029 78.7203 146.387C77.3145 148.707 76.1552 151.167 75.2611 153.727C61.9211 152.681 49.9979 154.332 50.0715 170.022C50.2003 201.969 49.8323 229.512 49.5011 261.074C49.2987 294.875 56.1067 283.737 81.9955 286.544C84.5347 288.93 89.3555 288.82 92.3547 287.443C81.3147 296.802 65.4355 292.838 53.0891 292.343C49.0595 291.664 44.8275 290.967 43.7603 278.287ZM299.962 342.97C293.651 344.805 269.602 344.805 239.591 344.934C129.559 342.108 50.0715 345.301 18.4235 343.374C5.78269 342.622 1.86349 338.273 6.61069 330.97C16.2339 320.895 41.1291 298.27 52.9235 296.105C60.9874 297.07 69.1207 297.327 77.2299 296.875C70.2747 305.647 80.3579 323.721 91.7843 322.565C100.984 322.565 105.695 309.078 112.024 305.812C121.224 308.399 131.197 303.426 137.6 297.15C180.491 295.811 219.425 297.389 259.739 296.196C285.463 303.151 324.139 333.759 299.962 342.97Z" fill="#262725"/>
<path d="M117.359 323.354C118.612 323.611 119.89 323.728 121.168 323.702C120.101 325.152 118.758 328.327 121.702 328.565C124.002 328.308 124.48 324.602 125.731 323.409C130.442 323.225 135.704 323.409 140.856 323.409C139.016 328.492 144.812 328.345 144.683 323.501C160.857 325.336 164.758 318.601 145.769 319.831C146.971 316.803 148.366 313.855 149.946 311.004C155.564 310.439 161.216 310.292 166.855 310.564C165.917 314.546 162.384 321.574 166.855 323.28C167.124 323.284 167.39 323.229 167.635 323.119C167.88 323.009 168.097 322.847 168.273 322.644C168.448 322.441 168.577 322.202 168.65 321.944C168.723 321.687 168.738 321.416 168.695 321.152C168.291 318.271 169.468 314.527 170.811 310.766C177.27 312.601 180.011 306.839 172.136 307.096C174.804 301.407 168.695 301.591 168.235 306.894C162.717 306.585 157.184 306.653 151.675 307.096C152.117 305.499 154.435 302.215 151.823 301.224C151.591 301.14 151.345 301.104 151.099 301.117C150.853 301.131 150.612 301.193 150.39 301.301C150.169 301.409 149.972 301.56 149.81 301.745C149.648 301.93 149.525 302.146 149.449 302.38C148.713 304.453 148.051 306.05 147.425 307.536C145.162 308.344 139.495 307.206 139.513 310.747C140.267 313.482 143.598 311.61 145.493 311.591C143.989 314.174 142.756 316.904 141.813 319.739C137.305 319.629 132.723 319.5 128.565 319.555C130.405 317.941 138.795 308.545 130.994 311.078C128.708 314.097 126.251 316.982 123.634 319.721C117.157 319.28 113.017 322.656 117.359 323.354Z" fill="#262725"/>
<path d="M152.651 176.536C153.293 176.746 153.983 176.766 154.636 176.593C155.289 176.421 155.878 176.063 156.331 175.564C159.551 172.132 164.114 173.472 167.095 170.536C170.462 165.563 165.77 158.883 160.563 157.801C148.732 154.076 141.611 170.609 152.651 176.536ZM151.198 163.985L151.363 163.801C153.684 166.079 156.287 168.053 159.11 169.673C156.313 169.985 153.59 175.178 151.455 171.086C149.928 168.279 149.781 165.856 151.198 163.985Z" fill="#262725"/>
<path d="M135.76 180.187C138.907 180.187 134.969 174.957 139.771 173.82C143.451 172.957 142.476 178.297 145.291 177.38C149.119 176.095 144.611 168.663 138.759 170.223C132.908 171.783 131.841 180.187 135.76 180.187Z" fill="#262725"/>
<path d="M115.63 190.189C119.071 190.886 120.819 187.492 124.517 187.271C137.103 185.326 130.755 170.445 120.469 170.756C109.429 169.545 105.786 188.189 115.63 190.189ZM113.79 178.574C114.123 177.9 114.557 177.281 115.078 176.739C117.883 179.821 121.448 182.117 125.419 183.4C121.334 182.904 116.219 188.354 114.6 186.06C113.755 185.024 113.228 183.766 113.081 182.438C112.934 181.111 113.174 179.769 113.772 178.574H113.79Z" fill="#262725"/>
<path d="M180.343 317.152C184.023 317.409 187.942 317.629 192.505 317.665C191.898 319.647 189.285 323.354 192.8 323.831C195.394 323.391 195.394 319.702 196.48 317.647C207.52 318.858 210.353 312.289 197.289 313.977C198.228 307.408 192.211 306.949 193.609 313.977C189.727 314.326 173.277 311.371 180.343 317.152Z" fill="#262725"/>
<path d="M155.467 265.295C168.954 266.139 160.711 246.945 152.339 248.615C148.567 249.624 147.518 252.56 150.867 256.634C152.394 258.469 155.32 255.973 153.682 254.175C153.177 253.669 152.82 253.034 152.652 252.34C153.002 252.101 155.246 252.248 157.657 255.496C163.453 265.387 148.236 261.625 147.537 253.074C139.698 246.486 145.954 265.497 155.467 265.295Z" fill="#262725"/>
<path d="M219.775 317.629C222.061 317.314 224.366 317.149 226.675 317.133C226.785 317.555 227.3 319.556 227.411 320.033C229.435 323.556 232.213 320.033 230.557 317.17C241.91 317.445 253.686 320.161 264.799 319.005C271.479 313.5 256.483 316.124 253.281 315.335C251.441 312.803 249.417 309.518 247.559 306.527C252.54 305.565 257.69 305.99 262.444 307.756C270.393 301.94 248.975 301.829 245.314 303.004C244.173 299.04 238.395 298.948 241.063 303.408C228.386 303.169 234.439 309.151 243.4 306.967C245.038 309.573 246.749 312.381 248.442 314.913C242.186 314.307 235.875 313.518 229.582 313.39C229.067 311.555 228.588 310.142 227.263 306.307C227.102 305.84 226.762 305.455 226.317 305.239C225.872 305.022 225.358 304.99 224.89 305.151C224.421 305.311 224.036 305.651 223.819 306.095C223.601 306.539 223.57 307.051 223.731 307.518C224.761 310.527 225.276 312.014 225.681 313.39C223.215 313.94 217.806 312.491 217.64 316.032C217.669 316.28 217.748 316.518 217.873 316.734C217.997 316.95 218.164 317.138 218.364 317.287C218.563 317.437 218.792 317.544 219.034 317.603C219.277 317.661 219.529 317.67 219.775 317.629Z" fill="#262725"/>
</svg>
