<svg width="22" height="16" viewBox="0 0 22 16" fill="none" xmlns="http://www.w3.org/2000/svg">
<path d="M2.94594 0.800049H18.8459C20.3459 0.800049 21.1019 1.50805 21.1019 2.94805V13.052C21.1019 14.48 20.3459 15.2 18.8459 15.2H2.94594C1.44594 15.2 0.689941 14.48 0.689941 13.052V2.94805C0.689941 1.50805 1.44594 0.800049 2.94594 0.800049ZM10.8899 11.12L18.9779 4.48405C19.2659 4.24405 19.4939 3.69205 19.1339 3.20005C18.7859 2.70805 18.1499 2.69605 17.7299 2.99605L10.8899 7.62805L4.06194 2.99605C3.64194 2.69605 3.00594 2.70805 2.65794 3.20005C2.29794 3.69205 2.52594 4.24405 2.81394 4.48405L10.8899 11.12Z" fill="#FBDA03"/>
</svg>
