<svg width="24" height="25" viewBox="0 0 24 25" fill="none" xmlns="http://www.w3.org/2000/svg">
<path d="M23.875 12.5C23.875 18.9219 18.6719 24.125 12.25 24.125C5.82812 24.125 0.625 18.9219 0.625 12.5C0.625 6.07812 5.82812 0.875 12.25 0.875C18.6719 0.875 23.875 6.07812 23.875 12.5ZM13.0469 17.8438L19.375 11.5156C19.7969 11.0469 19.7969 10.3438 19.375 9.92188L18.5781 9.125C18.1562 8.70312 17.4062 8.70312 16.9844 9.125L12.25 13.9062L7.46875 9.125C7.04688 8.70312 6.29688 8.70312 5.875 9.125L5.07812 9.92188C4.65625 10.3438 4.65625 11.0938 5.07812 11.5156L11.4531 17.8438C11.875 18.3125 12.5781 18.3125 13.0469 17.8438Z" fill="white"/>
</svg>
