<svg width="18" height="14" viewBox="0 0 18 14" fill="none" xmlns="http://www.w3.org/2000/svg">
<g clip-path="url(#clip0_36_448)">
<path d="M17.9999 1.70478C17.3258 1.98925 16.6109 2.17597 15.8788 2.25875C16.6414 1.82334 17.2269 1.13386 17.5026 0.312345C16.7777 0.722154 15.9846 1.01089 15.1576 1.16608C14.4839 0.482355 13.5242 0.0550537 12.462 0.0550537C10.4225 0.0550537 8.76897 1.63029 8.76897 3.57314C8.76897 3.84892 8.80167 4.1174 8.8646 4.37496C5.79546 4.22819 3.07436 2.82759 1.25292 0.699053C0.935104 1.21866 0.752995 1.82307 0.752995 2.46774C0.752995 3.68835 1.405 4.76515 2.39585 5.39608C1.8094 5.37859 1.23587 5.22769 0.723112 4.95599C0.722901 4.97073 0.722901 4.98546 0.722901 5.00027C0.722901 6.70485 1.99584 8.12682 3.68517 8.45003C3.14136 8.59092 2.57095 8.61154 2.0175 8.51031C2.48739 9.90803 3.85125 10.9251 5.46717 10.9536C4.2033 11.8972 2.61093 12.4597 0.880823 12.4597C0.582698 12.4597 0.288792 12.443 -0.00012207 12.4105C1.63415 13.4087 3.57527 13.9911 5.66074 13.9911C12.4534 13.9911 16.1678 8.63022 16.1678 3.98115C16.1678 3.82855 16.1643 3.67683 16.1571 3.52598C16.8801 3.02807 17.5041 2.41135 17.9999 1.70478Z" fill="#262725"/>
</g>
<defs>
<clipPath id="clip0_36_448">
<rect width="18" height="14" fill="white"/>
</clipPath>
</defs>
</svg>
